<?xml version="1.0" encoding="UTF-8" standalone="no"?>
<!DOCTYPE svg PUBLIC "-//W3C//DTD SVG 1.1//EN"
 "http://www.w3.org/Graphics/SVG/1.1/DTD/svg11.dtd">
<!-- Generated by graphviz version 2.47.0 (20210316.0004)
 -->
<!-- Title: dbml Pages: 1 -->
<svg width="1774pt" height="2823pt"
 viewBox="0.00 0.00 1774.23 2822.77" xmlns="http://www.w3.org/2000/svg" xmlns:xlink="http://www.w3.org/1999/xlink">
<g id="graph0" class="graph" transform="scale(1 1) rotate(0) translate(4 2818.77)">
<title>dbml</title>
<!-- Categories -->
<g id="Categories" class="node">
<title>Categories</title>
<ellipse fill="none" stroke="black" stroke-width="0" cx="1449.44" cy="-172.53" rx="310.34" ry="172.57"/>
<polygon fill="#1d71b8" stroke="transparent" points="1232.44,-232.53 1232.44,-292.53 1667.44,-292.53 1667.44,-232.53 1232.44,-232.53"/>
<polygon fill="none" stroke="#29235c" points="1232.44,-232.53 1232.44,-292.53 1667.44,-292.53 1667.44,-232.53 1232.44,-232.53"/>
<text text-anchor="start" x="1310.35" y="-253.73" font-family="Helvetica,sans-Serif" font-weight="bold" font-size="32.00" fill="#ffffff"> &#160;&#160;&#160;&#160;&#160;&#160;Categories &#160;&#160;&#160;&#160;&#160;&#160;</text>
<polygon fill="#e7e2dd" stroke="transparent" points="1232.44,-172.53 1232.44,-232.53 1667.44,-232.53 1667.44,-172.53 1232.44,-172.53"/>
<polygon fill="none" stroke="#29235c" points="1232.44,-172.53 1232.44,-232.53 1667.44,-232.53 1667.44,-172.53 1232.44,-172.53"/>
<text text-anchor="start" x="1243.44" y="-193.73" font-family="Helvetica,sans-Serif" font-weight="bold" font-size="32.00" fill="#29235c">CategoryID</text>
<text text-anchor="start" x="1405.24" y="-193.73" font-family="Helvetica,sans-Serif" font-size="32.00" fill="#29235c"> &#160;&#160;&#160;</text>
<text text-anchor="start" x="1622.66" y="-193.73" font-family="Helvetica,sans-Serif" font-style="italic" font-size="32.00" fill="#29235c">int</text>
<polygon fill="#e7e2dd" stroke="transparent" points="1232.44,-112.53 1232.44,-172.53 1667.44,-172.53 1667.44,-112.53 1232.44,-112.53"/>
<polygon fill="none" stroke="#29235c" points="1232.44,-112.53 1232.44,-172.53 1667.44,-172.53 1667.44,-112.53 1232.44,-112.53"/>
<text text-anchor="start" x="1243.09" y="-132.73" font-family="Helvetica,sans-Serif" font-size="32.00" fill="#29235c">CategoryName &#160;&#160;&#160;</text>
<text text-anchor="start" x="1493.17" y="-133.73" font-family="Helvetica,sans-Serif" font-style="italic" font-size="32.00" fill="#29235c">varchar(25)</text>
<polygon fill="#e7e2dd" stroke="transparent" points="1232.44,-52.53 1232.44,-112.53 1667.44,-112.53 1667.44,-52.53 1232.44,-52.53"/>
<polygon fill="none" stroke="#29235c" points="1232.44,-52.53 1232.44,-112.53 1667.44,-112.53 1667.44,-52.53 1232.44,-52.53"/>
<text text-anchor="start" x="1243.44" y="-72.73" font-family="Helvetica,sans-Serif" font-size="32.00" fill="#29235c">Description &#160;&#160;&#160;</text>
<text text-anchor="start" x="1475.1" y="-73.73" font-family="Helvetica,sans-Serif" font-style="italic" font-size="32.00" fill="#29235c">varchar(255)</text>
<polygon fill="none" stroke="#29235c" stroke-width="2" points="1230.94,-51.53 1230.94,-293.53 1667.94,-293.53 1667.94,-51.53 1230.94,-51.53"/>
</g>
<!-- Customers -->
<g id="Customers" class="node">
<title>Customers</title>
<ellipse fill="none" stroke="black" stroke-width="0" cx="1449.44" cy="-2472.53" rx="316.57" ry="342.48"/>
<polygon fill="#1d71b8" stroke="transparent" points="1227.44,-2652.53 1227.44,-2712.53 1671.44,-2712.53 1671.44,-2652.53 1227.44,-2652.53"/>
<polygon fill="none" stroke="#29235c" points="1227.44,-2652.53 1227.44,-2712.53 1671.44,-2712.53 1671.44,-2652.53 1227.44,-2652.53"/>
<text text-anchor="start" x="1309.86" y="-2673.73" font-family="Helvetica,sans-Serif" font-weight="bold" font-size="32.00" fill="#ffffff"> &#160;&#160;&#160;&#160;&#160;&#160;Customers &#160;&#160;&#160;&#160;&#160;&#160;</text>
<polygon fill="#e7e2dd" stroke="transparent" points="1227.44,-2592.53 1227.44,-2652.53 1671.44,-2652.53 1671.44,-2592.53 1227.44,-2592.53"/>
<polygon fill="none" stroke="#29235c" points="1227.44,-2592.53 1227.44,-2652.53 1671.44,-2652.53 1671.44,-2592.53 1227.44,-2592.53"/>
<text text-anchor="start" x="1238.44" y="-2613.73" font-family="Helvetica,sans-Serif" font-weight="bold" font-size="32.00" fill="#29235c">CustomerID</text>
<text text-anchor="start" x="1409.1" y="-2613.73" font-family="Helvetica,sans-Serif" font-size="32.00" fill="#29235c"> &#160;&#160;&#160;</text>
<text text-anchor="start" x="1626.66" y="-2613.73" font-family="Helvetica,sans-Serif" font-style="italic" font-size="32.00" fill="#29235c">int</text>
<polygon fill="#e7e2dd" stroke="transparent" points="1227.44,-2532.53 1227.44,-2592.53 1671.44,-2592.53 1671.44,-2532.53 1227.44,-2532.53"/>
<polygon fill="none" stroke="#29235c" points="1227.44,-2532.53 1227.44,-2592.53 1671.44,-2592.53 1671.44,-2532.53 1227.44,-2532.53"/>
<text text-anchor="start" x="1238.16" y="-2552.73" font-family="Helvetica,sans-Serif" font-size="32.00" fill="#29235c">CustomerName &#160;&#160;&#160;</text>
<text text-anchor="start" x="1497.17" y="-2553.73" font-family="Helvetica,sans-Serif" font-style="italic" font-size="32.00" fill="#29235c">varchar(50)</text>
<polygon fill="#e7e2dd" stroke="transparent" points="1227.44,-2472.53 1227.44,-2532.53 1671.44,-2532.53 1671.44,-2472.53 1227.44,-2472.53"/>
<polygon fill="none" stroke="#29235c" points="1227.44,-2472.53 1227.44,-2532.53 1671.44,-2532.53 1671.44,-2472.53 1227.44,-2472.53"/>
<text text-anchor="start" x="1238.44" y="-2492.73" font-family="Helvetica,sans-Serif" font-size="32.00" fill="#29235c">ContactName &#160;&#160;&#160;</text>
<text text-anchor="start" x="1496.89" y="-2493.73" font-family="Helvetica,sans-Serif" font-style="italic" font-size="32.00" fill="#29235c">varchar(50)</text>
<polygon fill="#e7e2dd" stroke="transparent" points="1227.44,-2412.53 1227.44,-2472.53 1671.44,-2472.53 1671.44,-2412.53 1227.44,-2412.53"/>
<polygon fill="none" stroke="#29235c" points="1227.44,-2412.53 1227.44,-2472.53 1671.44,-2472.53 1671.44,-2412.53 1227.44,-2412.53"/>
<text text-anchor="start" x="1238.44" y="-2432.73" font-family="Helvetica,sans-Serif" font-size="32.00" fill="#29235c">Address &#160;&#160;&#160;</text>
<text text-anchor="start" x="1496.89" y="-2433.73" font-family="Helvetica,sans-Serif" font-style="italic" font-size="32.00" fill="#29235c">varchar(50)</text>
<polygon fill="#e7e2dd" stroke="transparent" points="1227.44,-2352.53 1227.44,-2412.53 1671.44,-2412.53 1671.44,-2352.53 1227.44,-2352.53"/>
<polygon fill="none" stroke="#29235c" points="1227.44,-2352.53 1227.44,-2412.53 1671.44,-2412.53 1671.44,-2352.53 1227.44,-2352.53"/>
<text text-anchor="start" x="1238.44" y="-2372.73" font-family="Helvetica,sans-Serif" font-size="32.00" fill="#29235c">City &#160;&#160;&#160;</text>
<text text-anchor="start" x="1496.89" y="-2373.73" font-family="Helvetica,sans-Serif" font-style="italic" font-size="32.00" fill="#29235c">varchar(20)</text>
<polygon fill="#e7e2dd" stroke="transparent" points="1227.44,-2292.53 1227.44,-2352.53 1671.44,-2352.53 1671.44,-2292.53 1227.44,-2292.53"/>
<polygon fill="none" stroke="#29235c" points="1227.44,-2292.53 1227.44,-2352.53 1671.44,-2352.53 1671.44,-2292.53 1227.44,-2292.53"/>
<text text-anchor="start" x="1238.44" y="-2312.73" font-family="Helvetica,sans-Serif" font-size="32.00" fill="#29235c">PostalCode &#160;&#160;&#160;</text>
<text text-anchor="start" x="1496.89" y="-2313.73" font-family="Helvetica,sans-Serif" font-style="italic" font-size="32.00" fill="#29235c">varchar(10)</text>
<polygon fill="#e7e2dd" stroke="transparent" points="1227.44,-2232.53 1227.44,-2292.53 1671.44,-2292.53 1671.44,-2232.53 1227.44,-2232.53"/>
<polygon fill="none" stroke="#29235c" points="1227.44,-2232.53 1227.44,-2292.53 1671.44,-2292.53 1671.44,-2232.53 1227.44,-2232.53"/>
<text text-anchor="start" x="1238.44" y="-2252.73" font-family="Helvetica,sans-Serif" font-size="32.00" fill="#29235c">Country &#160;&#160;&#160;</text>
<text text-anchor="start" x="1496.89" y="-2253.73" font-family="Helvetica,sans-Serif" font-style="italic" font-size="32.00" fill="#29235c">varchar(15)</text>
<polygon fill="none" stroke="#29235c" stroke-width="2" points="1226.44,-2231.53 1226.44,-2713.53 1672.44,-2713.53 1672.44,-2231.53 1226.44,-2231.53"/>
</g>
<!-- Employees -->
<g id="Employees" class="node">
<title>Employees</title>
<ellipse fill="none" stroke="black" stroke-width="0" cx="1449.44" cy="-1812.53" rx="263.09" ry="299.63"/>
<polygon fill="#1d71b8" stroke="transparent" points="1265.44,-1962.53 1265.44,-2022.53 1633.44,-2022.53 1633.44,-1962.53 1265.44,-1962.53"/>
<polygon fill="none" stroke="#29235c" points="1265.44,-1962.53 1265.44,-2022.53 1633.44,-2022.53 1633.44,-1962.53 1265.44,-1962.53"/>
<text text-anchor="start" x="1308.07" y="-1983.73" font-family="Helvetica,sans-Serif" font-weight="bold" font-size="32.00" fill="#ffffff"> &#160;&#160;&#160;&#160;&#160;&#160;Employees &#160;&#160;&#160;&#160;&#160;&#160;</text>
<polygon fill="#e7e2dd" stroke="transparent" points="1265.44,-1902.53 1265.44,-1962.53 1633.44,-1962.53 1633.44,-1902.53 1265.44,-1902.53"/>
<polygon fill="none" stroke="#29235c" points="1265.44,-1902.53 1265.44,-1962.53 1633.44,-1962.53 1633.44,-1902.53 1265.44,-1902.53"/>
<text text-anchor="start" x="1276.44" y="-1923.73" font-family="Helvetica,sans-Serif" font-weight="bold" font-size="32.00" fill="#29235c">EmployeeID</text>
<text text-anchor="start" x="1450.69" y="-1923.73" font-family="Helvetica,sans-Serif" font-size="32.00" fill="#29235c"> &#160;&#160;&#160;</text>
<text text-anchor="start" x="1588.66" y="-1923.73" font-family="Helvetica,sans-Serif" font-style="italic" font-size="32.00" fill="#29235c">int</text>
<polygon fill="#e7e2dd" stroke="transparent" points="1265.44,-1842.53 1265.44,-1902.53 1633.44,-1902.53 1633.44,-1842.53 1265.44,-1842.53"/>
<polygon fill="none" stroke="#29235c" points="1265.44,-1842.53 1265.44,-1902.53 1633.44,-1902.53 1633.44,-1842.53 1265.44,-1842.53"/>
<text text-anchor="start" x="1276.44" y="-1862.73" font-family="Helvetica,sans-Serif" font-size="32.00" fill="#29235c">LastName &#160;&#160;&#160;</text>
<text text-anchor="start" x="1458.89" y="-1863.73" font-family="Helvetica,sans-Serif" font-style="italic" font-size="32.00" fill="#29235c">varchar(15)</text>
<polygon fill="#e7e2dd" stroke="transparent" points="1265.44,-1782.53 1265.44,-1842.53 1633.44,-1842.53 1633.44,-1782.53 1265.44,-1782.53"/>
<polygon fill="none" stroke="#29235c" points="1265.44,-1782.53 1265.44,-1842.53 1633.44,-1842.53 1633.44,-1782.53 1265.44,-1782.53"/>
<text text-anchor="start" x="1276.4" y="-1802.73" font-family="Helvetica,sans-Serif" font-size="32.00" fill="#29235c">FirstName &#160;&#160;&#160;</text>
<text text-anchor="start" x="1459.17" y="-1803.73" font-family="Helvetica,sans-Serif" font-style="italic" font-size="32.00" fill="#29235c">varchar(15)</text>
<polygon fill="#e7e2dd" stroke="transparent" points="1265.44,-1722.53 1265.44,-1782.53 1633.44,-1782.53 1633.44,-1722.53 1265.44,-1722.53"/>
<polygon fill="none" stroke="#29235c" points="1265.44,-1722.53 1265.44,-1782.53 1633.44,-1782.53 1633.44,-1722.53 1265.44,-1722.53"/>
<text text-anchor="start" x="1276.44" y="-1742.73" font-family="Helvetica,sans-Serif" font-size="32.00" fill="#29235c">BirthDate &#160;&#160;&#160;</text>
<text text-anchor="start" x="1499.75" y="-1743.73" font-family="Helvetica,sans-Serif" font-style="italic" font-size="32.00" fill="#29235c">datetime</text>
<polygon fill="#e7e2dd" stroke="transparent" points="1265.44,-1662.53 1265.44,-1722.53 1633.44,-1722.53 1633.44,-1662.53 1265.44,-1662.53"/>
<polygon fill="none" stroke="#29235c" points="1265.44,-1662.53 1265.44,-1722.53 1633.44,-1722.53 1633.44,-1662.53 1265.44,-1662.53"/>
<text text-anchor="start" x="1276.44" y="-1682.73" font-family="Helvetica,sans-Serif" font-size="32.00" fill="#29235c">Photo &#160;&#160;&#160;</text>
<text text-anchor="start" x="1458.89" y="-1683.73" font-family="Helvetica,sans-Serif" font-style="italic" font-size="32.00" fill="#29235c">varchar(25)</text>
<polygon fill="#e7e2dd" stroke="transparent" points="1265.44,-1602.53 1265.44,-1662.53 1633.44,-1662.53 1633.44,-1602.53 1265.44,-1602.53"/>
<polygon fill="none" stroke="#29235c" points="1265.44,-1602.53 1265.44,-1662.53 1633.44,-1662.53 1633.44,-1602.53 1265.44,-1602.53"/>
<text text-anchor="start" x="1276.44" y="-1622.73" font-family="Helvetica,sans-Serif" font-size="32.00" fill="#29235c">Notes &#160;&#160;&#160;</text>
<text text-anchor="start" x="1423.31" y="-1623.73" font-family="Helvetica,sans-Serif" font-style="italic" font-size="32.00" fill="#29235c">varchar(1024)</text>
<polygon fill="none" stroke="#29235c" stroke-width="2" points="1264.44,-1601.53 1264.44,-2023.53 1634.44,-2023.53 1634.44,-1601.53 1264.44,-1601.53"/>
</g>
<!-- OrderDetails -->
<g id="OrderDetails" class="node">
<title>OrderDetails</title>
<ellipse fill="none" stroke="black" stroke-width="0" cx="233.35" cy="-1344.53" rx="233.19" ry="214.92"/>
<polygon fill="#1d71b8" stroke="transparent" points="70.35,-1434.53 70.35,-1494.53 396.35,-1494.53 396.35,-1434.53 70.35,-1434.53"/>
<polygon fill="none" stroke="#29235c" points="70.35,-1434.53 70.35,-1494.53 396.35,-1494.53 396.35,-1434.53 70.35,-1434.53"/>
<text text-anchor="start" x="81.32" y="-1455.73" font-family="Helvetica,sans-Serif" font-weight="bold" font-size="32.00" fill="#ffffff"> &#160;&#160;&#160;&#160;&#160;&#160;OrderDetails &#160;&#160;&#160;&#160;&#160;&#160;</text>
<polygon fill="#e7e2dd" stroke="transparent" points="70.35,-1374.53 70.35,-1434.53 396.35,-1434.53 396.35,-1374.53 70.35,-1374.53"/>
<polygon fill="none" stroke="#29235c" points="70.35,-1374.53 70.35,-1434.53 396.35,-1434.53 396.35,-1374.53 70.35,-1374.53"/>
<text text-anchor="start" x="81.35" y="-1395.73" font-family="Helvetica,sans-Serif" font-weight="bold" font-size="32.00" fill="#29235c">OrderDetailID</text>
<text text-anchor="start" x="276.89" y="-1395.73" font-family="Helvetica,sans-Serif" font-size="32.00" fill="#29235c"> &#160;&#160;&#160;</text>
<text text-anchor="start" x="351.56" y="-1395.73" font-family="Helvetica,sans-Serif" font-style="italic" font-size="32.00" fill="#29235c">int</text>
<polygon fill="#e7e2dd" stroke="transparent" points="70.35,-1314.53 70.35,-1374.53 396.35,-1374.53 396.35,-1314.53 70.35,-1314.53"/>
<polygon fill="none" stroke="#29235c" points="70.35,-1314.53 70.35,-1374.53 396.35,-1374.53 396.35,-1314.53 70.35,-1314.53"/>
<text text-anchor="start" x="81.35" y="-1334.73" font-family="Helvetica,sans-Serif" font-size="32.00" fill="#29235c">OrderID &#160;&#160;&#160;</text>
<text text-anchor="start" x="351.56" y="-1335.73" font-family="Helvetica,sans-Serif" font-style="italic" font-size="32.00" fill="#29235c">int</text>
<polygon fill="#e7e2dd" stroke="transparent" points="70.35,-1254.53 70.35,-1314.53 396.35,-1314.53 396.35,-1254.53 70.35,-1254.53"/>
<polygon fill="none" stroke="#29235c" points="70.35,-1254.53 70.35,-1314.53 396.35,-1314.53 396.35,-1254.53 70.35,-1254.53"/>
<text text-anchor="start" x="81.35" y="-1274.73" font-family="Helvetica,sans-Serif" font-size="32.00" fill="#29235c">ProductID &#160;&#160;&#160;</text>
<text text-anchor="start" x="351.56" y="-1275.73" font-family="Helvetica,sans-Serif" font-style="italic" font-size="32.00" fill="#29235c">int</text>
<polygon fill="#e7e2dd" stroke="transparent" points="70.35,-1194.53 70.35,-1254.53 396.35,-1254.53 396.35,-1194.53 70.35,-1194.53"/>
<polygon fill="none" stroke="#29235c" points="70.35,-1194.53 70.35,-1254.53 396.35,-1254.53 396.35,-1194.53 70.35,-1194.53"/>
<text text-anchor="start" x="81.35" y="-1214.73" font-family="Helvetica,sans-Serif" font-size="32.00" fill="#29235c">Quantity &#160;&#160;&#160;</text>
<text text-anchor="start" x="351.56" y="-1215.73" font-family="Helvetica,sans-Serif" font-style="italic" font-size="32.00" fill="#29235c">int</text>
<polygon fill="none" stroke="#29235c" stroke-width="2" points="69.35,-1193.53 69.35,-1495.53 397.35,-1495.53 397.35,-1193.53 69.35,-1193.53"/>
</g>
<!-- Orders -->
<g id="Orders" class="node">
<title>Orders</title>
<ellipse fill="none" stroke="black" stroke-width="0" cx="799.68" cy="-1672.53" rx="234.52" ry="257.27"/>
<polygon fill="#1d71b8" stroke="transparent" points="635.68,-1792.53 635.68,-1852.53 963.68,-1852.53 963.68,-1792.53 635.68,-1792.53"/>
<polygon fill="none" stroke="#29235c" points="635.68,-1792.53 635.68,-1852.53 963.68,-1852.53 963.68,-1792.53 635.68,-1792.53"/>
<text text-anchor="start" x="688.54" y="-1813.73" font-family="Helvetica,sans-Serif" font-weight="bold" font-size="32.00" fill="#ffffff"> &#160;&#160;&#160;&#160;&#160;&#160;Orders &#160;&#160;&#160;&#160;&#160;&#160;</text>
<polygon fill="#e7e2dd" stroke="transparent" points="635.68,-1732.53 635.68,-1792.53 963.68,-1792.53 963.68,-1732.53 635.68,-1732.53"/>
<polygon fill="none" stroke="#29235c" points="635.68,-1732.53 635.68,-1792.53 963.68,-1792.53 963.68,-1732.53 635.68,-1732.53"/>
<text text-anchor="start" x="646.68" y="-1753.73" font-family="Helvetica,sans-Serif" font-weight="bold" font-size="32.00" fill="#29235c">OrderID</text>
<text text-anchor="start" x="760.44" y="-1753.73" font-family="Helvetica,sans-Serif" font-size="32.00" fill="#29235c"> &#160;&#160;&#160;</text>
<text text-anchor="start" x="918.89" y="-1753.73" font-family="Helvetica,sans-Serif" font-style="italic" font-size="32.00" fill="#29235c">int</text>
<polygon fill="#e7e2dd" stroke="transparent" points="635.68,-1672.53 635.68,-1732.53 963.68,-1732.53 963.68,-1672.53 635.68,-1672.53"/>
<polygon fill="none" stroke="#29235c" points="635.68,-1672.53 635.68,-1732.53 963.68,-1732.53 963.68,-1672.53 635.68,-1672.53"/>
<text text-anchor="start" x="646.68" y="-1692.73" font-family="Helvetica,sans-Serif" font-size="32.00" fill="#29235c">CustomerID &#160;&#160;&#160;</text>
<text text-anchor="start" x="918.89" y="-1693.73" font-family="Helvetica,sans-Serif" font-style="italic" font-size="32.00" fill="#29235c">int</text>
<polygon fill="#e7e2dd" stroke="transparent" points="635.68,-1612.53 635.68,-1672.53 963.68,-1672.53 963.68,-1612.53 635.68,-1612.53"/>
<polygon fill="none" stroke="#29235c" points="635.68,-1612.53 635.68,-1672.53 963.68,-1672.53 963.68,-1612.53 635.68,-1612.53"/>
<text text-anchor="start" x="646.68" y="-1632.73" font-family="Helvetica,sans-Serif" font-size="32.00" fill="#29235c">EmployeeID &#160;&#160;&#160;</text>
<text text-anchor="start" x="918.89" y="-1633.73" font-family="Helvetica,sans-Serif" font-style="italic" font-size="32.00" fill="#29235c">int</text>
<polygon fill="#e7e2dd" stroke="transparent" points="635.68,-1552.53 635.68,-1612.53 963.68,-1612.53 963.68,-1552.53 635.68,-1552.53"/>
<polygon fill="none" stroke="#29235c" points="635.68,-1552.53 635.68,-1612.53 963.68,-1612.53 963.68,-1552.53 635.68,-1552.53"/>
<text text-anchor="start" x="646.22" y="-1572.73" font-family="Helvetica,sans-Serif" font-size="32.00" fill="#29235c">OrderDate &#160;&#160;&#160;</text>
<text text-anchor="start" x="830.33" y="-1573.73" font-family="Helvetica,sans-Serif" font-style="italic" font-size="32.00" fill="#29235c">datetime</text>
<polygon fill="#e7e2dd" stroke="transparent" points="635.68,-1492.53 635.68,-1552.53 963.68,-1552.53 963.68,-1492.53 635.68,-1492.53"/>
<polygon fill="none" stroke="#29235c" points="635.68,-1492.53 635.68,-1552.53 963.68,-1552.53 963.68,-1492.53 635.68,-1492.53"/>
<text text-anchor="start" x="646.68" y="-1512.73" font-family="Helvetica,sans-Serif" font-size="32.00" fill="#29235c">ShipperID &#160;&#160;&#160;</text>
<text text-anchor="start" x="918.89" y="-1513.73" font-family="Helvetica,sans-Serif" font-style="italic" font-size="32.00" fill="#29235c">int</text>
<polygon fill="none" stroke="#29235c" stroke-width="2" points="634.68,-1491.53 634.68,-1853.53 964.68,-1853.53 964.68,-1491.53 634.68,-1491.53"/>
</g>
<!-- OrderDetails&#45;&gt;Orders -->
<!-- OrderDetails&#45;&gt;Orders -->
<g id="edge8" class="edge">
<title>OrderDetails:e&#45;&gt;Orders:w</title>
<path fill="none" stroke="#29235c" stroke-width="3" d="M397.35,-1344.53C607.54,-1344.53 427.06,-1749.17 624.66,-1762.21"/>
<polygon fill="#29235c" stroke="#29235c" stroke-width="3" points="624.57,-1765.71 634.68,-1762.53 624.79,-1758.71 624.57,-1765.71"/>
<text text-anchor="middle" x="625.78" y="-1772.13" font-family="Helvetica,sans-Serif" font-size="32.00" fill="#29235c">1</text>
<text text-anchor="middle" x="403.57" y="-1354.13" font-family="Helvetica,sans-Serif" font-size="32.00" fill="#29235c">*</text>
</g>
<!-- Products -->
<g id="Products" class="node">
<title>Products</title>
<ellipse fill="none" stroke="black" stroke-width="0" cx="799.68" cy="-807.53" rx="296.97" ry="299.63"/>
<polygon fill="#1d71b8" stroke="transparent" points="591.68,-957.53 591.68,-1017.53 1007.68,-1017.53 1007.68,-957.53 591.68,-957.53"/>
<polygon fill="none" stroke="#29235c" points="591.68,-957.53 591.68,-1017.53 1007.68,-1017.53 1007.68,-957.53 591.68,-957.53"/>
<text text-anchor="start" x="674.3" y="-978.73" font-family="Helvetica,sans-Serif" font-weight="bold" font-size="32.00" fill="#ffffff"> &#160;&#160;&#160;&#160;&#160;&#160;Products &#160;&#160;&#160;&#160;&#160;&#160;</text>
<polygon fill="#e7e2dd" stroke="transparent" points="591.68,-897.53 591.68,-957.53 1007.68,-957.53 1007.68,-897.53 591.68,-897.53"/>
<polygon fill="none" stroke="#29235c" points="591.68,-897.53 591.68,-957.53 1007.68,-957.53 1007.68,-897.53 591.68,-897.53"/>
<text text-anchor="start" x="602.68" y="-918.73" font-family="Helvetica,sans-Serif" font-weight="bold" font-size="32.00" fill="#29235c">ProductID</text>
<text text-anchor="start" x="744.92" y="-918.73" font-family="Helvetica,sans-Serif" font-size="32.00" fill="#29235c"> &#160;&#160;&#160;</text>
<text text-anchor="start" x="962.89" y="-918.73" font-family="Helvetica,sans-Serif" font-style="italic" font-size="32.00" fill="#29235c">int</text>
<polygon fill="#e7e2dd" stroke="transparent" points="591.68,-837.53 591.68,-897.53 1007.68,-897.53 1007.68,-837.53 591.68,-837.53"/>
<polygon fill="none" stroke="#29235c" points="591.68,-837.53 591.68,-897.53 1007.68,-897.53 1007.68,-837.53 591.68,-837.53"/>
<text text-anchor="start" x="602.6" y="-857.73" font-family="Helvetica,sans-Serif" font-size="32.00" fill="#29235c">ProductName &#160;&#160;&#160;</text>
<text text-anchor="start" x="833.4" y="-858.73" font-family="Helvetica,sans-Serif" font-style="italic" font-size="32.00" fill="#29235c">varchar(50)</text>
<polygon fill="#e7e2dd" stroke="transparent" points="591.68,-777.53 591.68,-837.53 1007.68,-837.53 1007.68,-777.53 591.68,-777.53"/>
<polygon fill="none" stroke="#29235c" points="591.68,-777.53 591.68,-837.53 1007.68,-837.53 1007.68,-777.53 591.68,-777.53"/>
<text text-anchor="start" x="602.68" y="-797.73" font-family="Helvetica,sans-Serif" font-size="32.00" fill="#29235c">SupplierID &#160;&#160;&#160;</text>
<text text-anchor="start" x="962.89" y="-798.73" font-family="Helvetica,sans-Serif" font-style="italic" font-size="32.00" fill="#29235c">int</text>
<polygon fill="#e7e2dd" stroke="transparent" points="591.68,-717.53 591.68,-777.53 1007.68,-777.53 1007.68,-717.53 591.68,-717.53"/>
<polygon fill="none" stroke="#29235c" points="591.68,-717.53 591.68,-777.53 1007.68,-777.53 1007.68,-717.53 591.68,-717.53"/>
<text text-anchor="start" x="602.68" y="-737.73" font-family="Helvetica,sans-Serif" font-size="32.00" fill="#29235c">CategoryID &#160;&#160;&#160;</text>
<text text-anchor="start" x="962.89" y="-738.73" font-family="Helvetica,sans-Serif" font-style="italic" font-size="32.00" fill="#29235c">int</text>
<polygon fill="#e7e2dd" stroke="transparent" points="591.68,-657.53 591.68,-717.53 1007.68,-717.53 1007.68,-657.53 591.68,-657.53"/>
<polygon fill="none" stroke="#29235c" points="591.68,-657.53 591.68,-717.53 1007.68,-717.53 1007.68,-657.53 591.68,-657.53"/>
<text text-anchor="start" x="602.68" y="-677.73" font-family="Helvetica,sans-Serif" font-size="32.00" fill="#29235c">Unit &#160;&#160;&#160;</text>
<text text-anchor="start" x="833.12" y="-678.73" font-family="Helvetica,sans-Serif" font-style="italic" font-size="32.00" fill="#29235c">varchar(25)</text>
<polygon fill="#e7e2dd" stroke="transparent" points="591.68,-597.53 591.68,-657.53 1007.68,-657.53 1007.68,-597.53 591.68,-597.53"/>
<polygon fill="none" stroke="#29235c" points="591.68,-597.53 591.68,-657.53 1007.68,-657.53 1007.68,-597.53 591.68,-597.53"/>
<text text-anchor="start" x="602.68" y="-617.73" font-family="Helvetica,sans-Serif" font-size="32.00" fill="#29235c">Price &#160;&#160;&#160;</text>
<text text-anchor="start" x="882.9" y="-618.73" font-family="Helvetica,sans-Serif" font-style="italic" font-size="32.00" fill="#29235c">numeric</text>
<polygon fill="none" stroke="#29235c" stroke-width="2" points="590.68,-596.53 590.68,-1018.53 1008.68,-1018.53 1008.68,-596.53 590.68,-596.53"/>
</g>
<!-- OrderDetails&#45;&gt;Products -->
<!-- OrderDetails&#45;&gt;Products -->
<g id="edge6" class="edge">
<title>OrderDetails:e&#45;&gt;Products:w</title>
<path fill="none" stroke="#29235c" stroke-width="3" d="M397.35,-1284.53C574.26,-1284.53 416.65,-941.34 580.5,-927.94"/>
<polygon fill="#29235c" stroke="#29235c" stroke-width="3" points="580.82,-931.43 590.68,-927.53 580.54,-924.43 580.82,-931.43"/>
<text text-anchor="middle" x="581.78" y="-898.73" font-family="Helvetica,sans-Serif" font-size="32.00" fill="#29235c">1</text>
<text text-anchor="middle" x="403.57" y="-1294.13" font-family="Helvetica,sans-Serif" font-size="32.00" fill="#29235c">*</text>
</g>
<!-- Orders&#45;&gt;Customers -->
<!-- Orders&#45;&gt;Customers -->
<g id="edge10" class="edge">
<title>Orders:e&#45;&gt;Customers:w</title>
<path fill="none" stroke="#29235c" stroke-width="3" d="M964.68,-1702.53C1386.37,-1702.53 810.74,-2607.77 1216.37,-2622.36"/>
<polygon fill="#29235c" stroke="#29235c" stroke-width="3" points="1216.38,-2625.86 1226.44,-2622.53 1216.51,-2618.86 1216.38,-2625.86"/>
<text text-anchor="middle" x="1217.55" y="-2632.13" font-family="Helvetica,sans-Serif" font-size="32.00" fill="#29235c">1</text>
<text text-anchor="middle" x="958.45" y="-1712.13" font-family="Helvetica,sans-Serif" font-size="32.00" fill="#29235c">*</text>
</g>
<!-- Orders&#45;&gt;Employees -->
<!-- Orders&#45;&gt;Employees -->
<g id="edge12" class="edge">
<title>Orders:e&#45;&gt;Employees:w</title>
<path fill="none" stroke="#29235c" stroke-width="3" d="M964.68,-1642.53C1146.61,-1642.53 1081.62,-1921.87 1254.39,-1932.24"/>
<polygon fill="#29235c" stroke="#29235c" stroke-width="3" points="1254.35,-1935.74 1264.44,-1932.53 1254.55,-1928.74 1254.35,-1935.74"/>
<text text-anchor="middle" x="1255.55" y="-1942.13" font-family="Helvetica,sans-Serif" font-size="32.00" fill="#29235c">1</text>
<text text-anchor="middle" x="958.45" y="-1652.13" font-family="Helvetica,sans-Serif" font-size="32.00" fill="#29235c">*</text>
</g>
<!-- Shippers -->
<g id="Shippers" class="node">
<title>Shippers</title>
<ellipse fill="none" stroke="black" stroke-width="0" cx="1449.44" cy="-1322.53" rx="296.97" ry="172.57"/>
<polygon fill="#1d71b8" stroke="transparent" points="1241.44,-1382.53 1241.44,-1442.53 1657.44,-1442.53 1657.44,-1382.53 1241.44,-1382.53"/>
<polygon fill="none" stroke="#29235c" points="1241.44,-1382.53 1241.44,-1442.53 1657.44,-1442.53 1657.44,-1382.53 1241.44,-1382.53"/>
<text text-anchor="start" x="1324.07" y="-1403.73" font-family="Helvetica,sans-Serif" font-weight="bold" font-size="32.00" fill="#ffffff"> &#160;&#160;&#160;&#160;&#160;&#160;Shippers &#160;&#160;&#160;&#160;&#160;&#160;</text>
<polygon fill="#e7e2dd" stroke="transparent" points="1241.44,-1322.53 1241.44,-1382.53 1657.44,-1382.53 1657.44,-1322.53 1241.44,-1322.53"/>
<polygon fill="none" stroke="#29235c" points="1241.44,-1322.53 1241.44,-1382.53 1657.44,-1382.53 1657.44,-1322.53 1241.44,-1322.53"/>
<text text-anchor="start" x="1252.44" y="-1343.73" font-family="Helvetica,sans-Serif" font-weight="bold" font-size="32.00" fill="#29235c">ShipperID</text>
<text text-anchor="start" x="1394.69" y="-1343.73" font-family="Helvetica,sans-Serif" font-size="32.00" fill="#29235c"> &#160;&#160;&#160;</text>
<text text-anchor="start" x="1612.66" y="-1343.73" font-family="Helvetica,sans-Serif" font-style="italic" font-size="32.00" fill="#29235c">int</text>
<polygon fill="#e7e2dd" stroke="transparent" points="1241.44,-1262.53 1241.44,-1322.53 1657.44,-1322.53 1657.44,-1262.53 1241.44,-1262.53"/>
<polygon fill="none" stroke="#29235c" points="1241.44,-1262.53 1241.44,-1322.53 1657.44,-1322.53 1657.44,-1262.53 1241.44,-1262.53"/>
<text text-anchor="start" x="1252.37" y="-1282.73" font-family="Helvetica,sans-Serif" font-size="32.00" fill="#29235c">ShipperName &#160;&#160;&#160;</text>
<text text-anchor="start" x="1483.17" y="-1283.73" font-family="Helvetica,sans-Serif" font-style="italic" font-size="32.00" fill="#29235c">varchar(25)</text>
<polygon fill="#e7e2dd" stroke="transparent" points="1241.44,-1202.53 1241.44,-1262.53 1657.44,-1262.53 1657.44,-1202.53 1241.44,-1202.53"/>
<polygon fill="none" stroke="#29235c" points="1241.44,-1202.53 1241.44,-1262.53 1657.44,-1262.53 1657.44,-1202.53 1241.44,-1202.53"/>
<text text-anchor="start" x="1252.44" y="-1222.73" font-family="Helvetica,sans-Serif" font-size="32.00" fill="#29235c">Phone &#160;&#160;&#160;</text>
<text text-anchor="start" x="1482.89" y="-1223.73" font-family="Helvetica,sans-Serif" font-style="italic" font-size="32.00" fill="#29235c">varchar(15)</text>
<polygon fill="none" stroke="#29235c" stroke-width="2" points="1240.44,-1201.53 1240.44,-1443.53 1658.44,-1443.53 1658.44,-1201.53 1240.44,-1201.53"/>
</g>
<!-- Orders&#45;&gt;Shippers -->
<!-- Orders&#45;&gt;Shippers -->
<g id="edge14" class="edge">
<title>Orders:e&#45;&gt;Shippers:w</title>
<path fill="none" stroke="#29235c" stroke-width="3" d="M964.68,-1522.53C1105.14,-1522.53 1096.97,-1360.73 1230.17,-1352.83"/>
<polygon fill="#29235c" stroke="#29235c" stroke-width="3" points="1230.55,-1356.32 1240.44,-1352.53 1230.35,-1349.33 1230.55,-1356.32"/>
<text text-anchor="middle" x="1231.55" y="-1362.13" font-family="Helvetica,sans-Serif" font-size="32.00" fill="#29235c">1</text>
<text text-anchor="middle" x="958.45" y="-1532.13" font-family="Helvetica,sans-Serif" font-size="32.00" fill="#29235c">*</text>
</g>
<!-- Products&#45;&gt;Categories -->
<!-- Products&#45;&gt;Categories -->
<g id="edge2" class="edge">
<title>Products:e&#45;&gt;Categories:w</title>
<path fill="none" stroke="#29235c" stroke-width="3" d="M1008.68,-747.53C1266.9,-747.53 977.6,-216.81 1221.39,-202.82"/>
<polygon fill="#29235c" stroke="#29235c" stroke-width="3" points="1221.55,-206.31 1231.44,-202.53 1221.35,-199.32 1221.55,-206.31"/>
<text text-anchor="middle" x="1222.55" y="-173.73" font-family="Helvetica,sans-Serif" font-size="32.00" fill="#29235c">1</text>
<text text-anchor="middle" x="1014.9" y="-747.53" font-family="Helvetica,sans-Serif" font-size="32.00" fill="#29235c">*</text>
</g>
<!-- Suppliers -->
<g id="Suppliers" class="node">
<title>Suppliers</title>
<ellipse fill="none" stroke="black" stroke-width="0" cx="1449.44" cy="-747.53" rx="301.87" ry="384.83"/>
<polygon fill="#1d71b8" stroke="transparent" points="1238.44,-957.53 1238.44,-1017.53 1661.44,-1017.53 1661.44,-957.53 1238.44,-957.53"/>
<polygon fill="none" stroke="#29235c" points="1238.44,-957.53 1238.44,-1017.53 1661.44,-1017.53 1661.44,-957.53 1238.44,-957.53"/>
<text text-anchor="start" x="1321.02" y="-978.73" font-family="Helvetica,sans-Serif" font-weight="bold" font-size="32.00" fill="#ffffff"> &#160;&#160;&#160;&#160;&#160;&#160;Suppliers &#160;&#160;&#160;&#160;&#160;&#160;</text>
<polygon fill="#e7e2dd" stroke="transparent" points="1238.44,-897.53 1238.44,-957.53 1661.44,-957.53 1661.44,-897.53 1238.44,-897.53"/>
<polygon fill="none" stroke="#29235c" points="1238.44,-897.53 1238.44,-957.53 1661.44,-957.53 1661.44,-897.53 1238.44,-897.53"/>
<text text-anchor="start" x="1249.44" y="-918.73" font-family="Helvetica,sans-Serif" font-weight="bold" font-size="32.00" fill="#29235c">SupplierID</text>
<text text-anchor="start" x="1398.79" y="-918.73" font-family="Helvetica,sans-Serif" font-size="32.00" fill="#29235c"> &#160;&#160;&#160;</text>
<text text-anchor="start" x="1616.66" y="-918.73" font-family="Helvetica,sans-Serif" font-style="italic" font-size="32.00" fill="#29235c">int</text>
<polygon fill="#e7e2dd" stroke="transparent" points="1238.44,-837.53 1238.44,-897.53 1661.44,-897.53 1661.44,-837.53 1238.44,-837.53"/>
<polygon fill="none" stroke="#29235c" points="1238.44,-837.53 1238.44,-897.53 1661.44,-897.53 1661.44,-837.53 1238.44,-837.53"/>
<text text-anchor="start" x="1249.32" y="-857.73" font-family="Helvetica,sans-Serif" font-size="32.00" fill="#29235c">SupplierName &#160;&#160;&#160;</text>
<text text-anchor="start" x="1487.17" y="-858.73" font-family="Helvetica,sans-Serif" font-style="italic" font-size="32.00" fill="#29235c">varchar(50)</text>
<polygon fill="#e7e2dd" stroke="transparent" points="1238.44,-777.53 1238.44,-837.53 1661.44,-837.53 1661.44,-777.53 1238.44,-777.53"/>
<polygon fill="none" stroke="#29235c" points="1238.44,-777.53 1238.44,-837.53 1661.44,-837.53 1661.44,-777.53 1238.44,-777.53"/>
<text text-anchor="start" x="1249.44" y="-797.73" font-family="Helvetica,sans-Serif" font-size="32.00" fill="#29235c">ContactName &#160;&#160;&#160;</text>
<text text-anchor="start" x="1486.89" y="-798.73" font-family="Helvetica,sans-Serif" font-style="italic" font-size="32.00" fill="#29235c">varchar(50)</text>
<polygon fill="#e7e2dd" stroke="transparent" points="1238.44,-717.53 1238.44,-777.53 1661.44,-777.53 1661.44,-717.53 1238.44,-717.53"/>
<polygon fill="none" stroke="#29235c" points="1238.44,-717.53 1238.44,-777.53 1661.44,-777.53 1661.44,-717.53 1238.44,-717.53"/>
<text text-anchor="start" x="1249.44" y="-737.73" font-family="Helvetica,sans-Serif" font-size="32.00" fill="#29235c">Address &#160;&#160;&#160;</text>
<text text-anchor="start" x="1486.89" y="-738.73" font-family="Helvetica,sans-Serif" font-style="italic" font-size="32.00" fill="#29235c">varchar(50)</text>
<polygon fill="#e7e2dd" stroke="transparent" points="1238.44,-657.53 1238.44,-717.53 1661.44,-717.53 1661.44,-657.53 1238.44,-657.53"/>
<polygon fill="none" stroke="#29235c" points="1238.44,-657.53 1238.44,-717.53 1661.44,-717.53 1661.44,-657.53 1238.44,-657.53"/>
<text text-anchor="start" x="1249.44" y="-677.73" font-family="Helvetica,sans-Serif" font-size="32.00" fill="#29235c">City &#160;&#160;&#160;</text>
<text text-anchor="start" x="1486.89" y="-678.73" font-family="Helvetica,sans-Serif" font-style="italic" font-size="32.00" fill="#29235c">varchar(20)</text>
<polygon fill="#e7e2dd" stroke="transparent" points="1238.44,-597.53 1238.44,-657.53 1661.44,-657.53 1661.44,-597.53 1238.44,-597.53"/>
<polygon fill="none" stroke="#29235c" points="1238.44,-597.53 1238.44,-657.53 1661.44,-657.53 1661.44,-597.53 1238.44,-597.53"/>
<text text-anchor="start" x="1249.44" y="-617.73" font-family="Helvetica,sans-Serif" font-size="32.00" fill="#29235c">PostalCode &#160;&#160;&#160;</text>
<text text-anchor="start" x="1486.89" y="-618.73" font-family="Helvetica,sans-Serif" font-style="italic" font-size="32.00" fill="#29235c">varchar(10)</text>
<polygon fill="#e7e2dd" stroke="transparent" points="1238.44,-537.53 1238.44,-597.53 1661.44,-597.53 1661.44,-537.53 1238.44,-537.53"/>
<polygon fill="none" stroke="#29235c" points="1238.44,-537.53 1238.44,-597.53 1661.44,-597.53 1661.44,-537.53 1238.44,-537.53"/>
<text text-anchor="start" x="1249.44" y="-557.73" font-family="Helvetica,sans-Serif" font-size="32.00" fill="#29235c">Country &#160;&#160;&#160;</text>
<text text-anchor="start" x="1486.89" y="-558.73" font-family="Helvetica,sans-Serif" font-style="italic" font-size="32.00" fill="#29235c">varchar(15)</text>
<polygon fill="#e7e2dd" stroke="transparent" points="1238.44,-477.53 1238.44,-537.53 1661.44,-537.53 1661.44,-477.53 1238.44,-477.53"/>
<polygon fill="none" stroke="#29235c" points="1238.44,-477.53 1238.44,-537.53 1661.44,-537.53 1661.44,-477.53 1238.44,-477.53"/>
<text text-anchor="start" x="1249.44" y="-497.73" font-family="Helvetica,sans-Serif" font-size="32.00" fill="#29235c">Phone &#160;&#160;&#160;</text>
<text text-anchor="start" x="1486.89" y="-498.73" font-family="Helvetica,sans-Serif" font-style="italic" font-size="32.00" fill="#29235c">varchar(15)</text>
<polygon fill="none" stroke="#29235c" stroke-width="2" points="1236.94,-476.53 1236.94,-1018.53 1661.94,-1018.53 1661.94,-476.53 1236.94,-476.53"/>
</g>
<!-- Products&#45;&gt;Suppliers -->
<!-- Products&#45;&gt;Suppliers -->
<g id="edge4" class="edge">
<title>Products:e&#45;&gt;Suppliers:w</title>
<path fill="none" stroke="#29235c" stroke-width="3" d="M1008.68,-807.53C1120.01,-807.53 1122.58,-920.38 1227.33,-927.21"/>
<polygon fill="#29235c" stroke="#29235c" stroke-width="3" points="1227.34,-930.71 1237.44,-927.53 1227.56,-923.72 1227.34,-930.71"/>
<text text-anchor="middle" x="1228.55" y="-898.73" font-family="Helvetica,sans-Serif" font-size="32.00" fill="#29235c">1</text>
<text text-anchor="middle" x="1002.45" y="-778.73" font-family="Helvetica,sans-Serif" font-size="32.00" fill="#29235c">*</text>
</g>
</g>
</svg>
