<?xml version="1.0" encoding="UTF-8" standalone="no"?>
<!DOCTYPE svg PUBLIC "-//W3C//DTD SVG 1.1//EN"
 "http://www.w3.org/Graphics/SVG/1.1/DTD/svg11.dtd">
<!-- Generated by graphviz version 2.47.0 (20210316.0004)
 -->
<!-- Title: dbml Pages: 1 -->
<svg width="1934pt" height="2539pt"
 viewBox="0.00 0.00 1933.51 2539.00" xmlns="http://www.w3.org/2000/svg" xmlns:xlink="http://www.w3.org/1999/xlink">
<g id="graph0" class="graph" transform="scale(1 1) rotate(0) translate(4 2535)">
<title>dbml</title>
<g id="clust1" class="cluster">
<title>cluster_Dimensions</title>
<polygon fill="#dddddd" stroke="#dddddd" points="637.97,-8 637.97,-2523 1917.51,-2523 1917.51,-8 637.97,-8"/>
<text text-anchor="middle" x="1277.74" y="-2490.2" font-family="Helvetica,sans-Serif" font-size="32.00" fill="#29235c">Dimensions</text>
</g>
<g id="clust2" class="cluster">
<title>cluster_Facts</title>
<polygon fill="#dddddd" stroke="#dddddd" points="8,-928 8,-1783 617.97,-1783 617.97,-928 8,-928"/>
<text text-anchor="middle" x="312.98" y="-1750.2" font-family="Helvetica,sans-Serif" font-size="32.00" fill="#29235c">Facts</text>
</g>
<!-- Orders -->
<g id="Orders" class="node">
<title>Orders</title>
<ellipse fill="none" stroke="black" stroke-width="0" cx="942.95" cy="-1496" rx="234.52" ry="257.27"/>
<polygon fill="#1d71b8" stroke="transparent" points="778.95,-1616 778.95,-1676 1106.95,-1676 1106.95,-1616 778.95,-1616"/>
<polygon fill="none" stroke="#29235c" points="778.95,-1616 778.95,-1676 1106.95,-1676 1106.95,-1616 778.95,-1616"/>
<text text-anchor="start" x="831.82" y="-1637.2" font-family="Helvetica,sans-Serif" font-weight="bold" font-size="32.00" fill="#ffffff"> &#160;&#160;&#160;&#160;&#160;&#160;Orders &#160;&#160;&#160;&#160;&#160;&#160;</text>
<polygon fill="#e7e2dd" stroke="transparent" points="778.95,-1556 778.95,-1616 1106.95,-1616 1106.95,-1556 778.95,-1556"/>
<polygon fill="none" stroke="#29235c" points="778.95,-1556 778.95,-1616 1106.95,-1616 1106.95,-1556 778.95,-1556"/>
<text text-anchor="start" x="789.95" y="-1577.2" font-family="Helvetica,sans-Serif" font-weight="bold" font-size="32.00" fill="#29235c">OrderID</text>
<text text-anchor="start" x="903.72" y="-1577.2" font-family="Helvetica,sans-Serif" font-size="32.00" fill="#29235c"> &#160;&#160;&#160;</text>
<text text-anchor="start" x="1062.17" y="-1577.2" font-family="Helvetica,sans-Serif" font-style="italic" font-size="32.00" fill="#29235c">int</text>
<polygon fill="#e7e2dd" stroke="transparent" points="778.95,-1496 778.95,-1556 1106.95,-1556 1106.95,-1496 778.95,-1496"/>
<polygon fill="none" stroke="#29235c" points="778.95,-1496 778.95,-1556 1106.95,-1556 1106.95,-1496 778.95,-1496"/>
<text text-anchor="start" x="789.95" y="-1516.2" font-family="Helvetica,sans-Serif" font-size="32.00" fill="#29235c">CustomerID &#160;&#160;&#160;</text>
<text text-anchor="start" x="1062.17" y="-1517.2" font-family="Helvetica,sans-Serif" font-style="italic" font-size="32.00" fill="#29235c">int</text>
<polygon fill="#e7e2dd" stroke="transparent" points="778.95,-1436 778.95,-1496 1106.95,-1496 1106.95,-1436 778.95,-1436"/>
<polygon fill="none" stroke="#29235c" points="778.95,-1436 778.95,-1496 1106.95,-1496 1106.95,-1436 778.95,-1436"/>
<text text-anchor="start" x="789.95" y="-1456.2" font-family="Helvetica,sans-Serif" font-size="32.00" fill="#29235c">EmployeeID &#160;&#160;&#160;</text>
<text text-anchor="start" x="1062.17" y="-1457.2" font-family="Helvetica,sans-Serif" font-style="italic" font-size="32.00" fill="#29235c">int</text>
<polygon fill="#e7e2dd" stroke="transparent" points="778.95,-1376 778.95,-1436 1106.95,-1436 1106.95,-1376 778.95,-1376"/>
<polygon fill="none" stroke="#29235c" points="778.95,-1376 778.95,-1436 1106.95,-1436 1106.95,-1376 778.95,-1376"/>
<text text-anchor="start" x="789.5" y="-1396.2" font-family="Helvetica,sans-Serif" font-size="32.00" fill="#29235c">OrderDate &#160;&#160;&#160;</text>
<text text-anchor="start" x="973.61" y="-1397.2" font-family="Helvetica,sans-Serif" font-style="italic" font-size="32.00" fill="#29235c">datetime</text>
<polygon fill="#e7e2dd" stroke="transparent" points="778.95,-1316 778.95,-1376 1106.95,-1376 1106.95,-1316 778.95,-1316"/>
<polygon fill="none" stroke="#29235c" points="778.95,-1316 778.95,-1376 1106.95,-1376 1106.95,-1316 778.95,-1316"/>
<text text-anchor="start" x="789.95" y="-1336.2" font-family="Helvetica,sans-Serif" font-size="32.00" fill="#29235c">ShipperID &#160;&#160;&#160;</text>
<text text-anchor="start" x="1062.17" y="-1337.2" font-family="Helvetica,sans-Serif" font-style="italic" font-size="32.00" fill="#29235c">int</text>
<polygon fill="none" stroke="#29235c" stroke-width="2" points="777.95,-1315 777.95,-1677 1107.95,-1677 1107.95,-1315 777.95,-1315"/>
</g>
<!-- Customers -->
<g id="Customers" class="node">
<title>Customers</title>
<ellipse fill="none" stroke="black" stroke-width="0" cx="1592.72" cy="-2126" rx="316.57" ry="342.48"/>
<polygon fill="#1d71b8" stroke="transparent" points="1370.72,-2306 1370.72,-2366 1814.72,-2366 1814.72,-2306 1370.72,-2306"/>
<polygon fill="none" stroke="#29235c" points="1370.72,-2306 1370.72,-2366 1814.72,-2366 1814.72,-2306 1370.72,-2306"/>
<text text-anchor="start" x="1453.14" y="-2327.2" font-family="Helvetica,sans-Serif" font-weight="bold" font-size="32.00" fill="#ffffff"> &#160;&#160;&#160;&#160;&#160;&#160;Customers &#160;&#160;&#160;&#160;&#160;&#160;</text>
<polygon fill="#e7e2dd" stroke="transparent" points="1370.72,-2246 1370.72,-2306 1814.72,-2306 1814.72,-2246 1370.72,-2246"/>
<polygon fill="none" stroke="#29235c" points="1370.72,-2246 1370.72,-2306 1814.72,-2306 1814.72,-2246 1370.72,-2246"/>
<text text-anchor="start" x="1381.72" y="-2267.2" font-family="Helvetica,sans-Serif" font-weight="bold" font-size="32.00" fill="#29235c">CustomerID</text>
<text text-anchor="start" x="1552.38" y="-2267.2" font-family="Helvetica,sans-Serif" font-size="32.00" fill="#29235c"> &#160;&#160;&#160;</text>
<text text-anchor="start" x="1769.94" y="-2267.2" font-family="Helvetica,sans-Serif" font-style="italic" font-size="32.00" fill="#29235c">int</text>
<polygon fill="#e7e2dd" stroke="transparent" points="1370.72,-2186 1370.72,-2246 1814.72,-2246 1814.72,-2186 1370.72,-2186"/>
<polygon fill="none" stroke="#29235c" points="1370.72,-2186 1370.72,-2246 1814.72,-2246 1814.72,-2186 1370.72,-2186"/>
<text text-anchor="start" x="1381.44" y="-2206.2" font-family="Helvetica,sans-Serif" font-size="32.00" fill="#29235c">CustomerName &#160;&#160;&#160;</text>
<text text-anchor="start" x="1640.45" y="-2207.2" font-family="Helvetica,sans-Serif" font-style="italic" font-size="32.00" fill="#29235c">varchar(50)</text>
<polygon fill="#e7e2dd" stroke="transparent" points="1370.72,-2126 1370.72,-2186 1814.72,-2186 1814.72,-2126 1370.72,-2126"/>
<polygon fill="none" stroke="#29235c" points="1370.72,-2126 1370.72,-2186 1814.72,-2186 1814.72,-2126 1370.72,-2126"/>
<text text-anchor="start" x="1381.72" y="-2146.2" font-family="Helvetica,sans-Serif" font-size="32.00" fill="#29235c">ContactName &#160;&#160;&#160;</text>
<text text-anchor="start" x="1640.17" y="-2147.2" font-family="Helvetica,sans-Serif" font-style="italic" font-size="32.00" fill="#29235c">varchar(50)</text>
<polygon fill="#e7e2dd" stroke="transparent" points="1370.72,-2066 1370.72,-2126 1814.72,-2126 1814.72,-2066 1370.72,-2066"/>
<polygon fill="none" stroke="#29235c" points="1370.72,-2066 1370.72,-2126 1814.72,-2126 1814.72,-2066 1370.72,-2066"/>
<text text-anchor="start" x="1381.72" y="-2086.2" font-family="Helvetica,sans-Serif" font-size="32.00" fill="#29235c">Address &#160;&#160;&#160;</text>
<text text-anchor="start" x="1640.17" y="-2087.2" font-family="Helvetica,sans-Serif" font-style="italic" font-size="32.00" fill="#29235c">varchar(50)</text>
<polygon fill="#e7e2dd" stroke="transparent" points="1370.72,-2006 1370.72,-2066 1814.72,-2066 1814.72,-2006 1370.72,-2006"/>
<polygon fill="none" stroke="#29235c" points="1370.72,-2006 1370.72,-2066 1814.72,-2066 1814.72,-2006 1370.72,-2006"/>
<text text-anchor="start" x="1381.72" y="-2026.2" font-family="Helvetica,sans-Serif" font-size="32.00" fill="#29235c">City &#160;&#160;&#160;</text>
<text text-anchor="start" x="1640.17" y="-2027.2" font-family="Helvetica,sans-Serif" font-style="italic" font-size="32.00" fill="#29235c">varchar(20)</text>
<polygon fill="#e7e2dd" stroke="transparent" points="1370.72,-1946 1370.72,-2006 1814.72,-2006 1814.72,-1946 1370.72,-1946"/>
<polygon fill="none" stroke="#29235c" points="1370.72,-1946 1370.72,-2006 1814.72,-2006 1814.72,-1946 1370.72,-1946"/>
<text text-anchor="start" x="1381.72" y="-1966.2" font-family="Helvetica,sans-Serif" font-size="32.00" fill="#29235c">PostalCode &#160;&#160;&#160;</text>
<text text-anchor="start" x="1640.17" y="-1967.2" font-family="Helvetica,sans-Serif" font-style="italic" font-size="32.00" fill="#29235c">varchar(10)</text>
<polygon fill="#e7e2dd" stroke="transparent" points="1370.72,-1886 1370.72,-1946 1814.72,-1946 1814.72,-1886 1370.72,-1886"/>
<polygon fill="none" stroke="#29235c" points="1370.72,-1886 1370.72,-1946 1814.72,-1946 1814.72,-1886 1370.72,-1886"/>
<text text-anchor="start" x="1381.72" y="-1906.2" font-family="Helvetica,sans-Serif" font-size="32.00" fill="#29235c">Country &#160;&#160;&#160;</text>
<text text-anchor="start" x="1640.17" y="-1907.2" font-family="Helvetica,sans-Serif" font-style="italic" font-size="32.00" fill="#29235c">varchar(15)</text>
<polygon fill="none" stroke="#29235c" stroke-width="2" points="1369.72,-1885 1369.72,-2367 1815.72,-2367 1815.72,-1885 1369.72,-1885"/>
</g>
<!-- Orders&#45;&gt;Customers -->
<!-- Orders&#45;&gt;Customers -->
<g id="edge10" class="edge">
<title>Orders:e&#45;&gt;Customers:w</title>
<path fill="none" stroke="#29235c" stroke-width="3" d="M1107.95,-1526C1457.56,-1526 1025.27,-2261.42 1359.61,-2275.79"/>
<polygon fill="#29235c" stroke="#29235c" stroke-width="3" points="1359.65,-2279.29 1369.72,-2276 1359.8,-2272.29 1359.65,-2279.29"/>
<text text-anchor="middle" x="1360.83" y="-2285.6" font-family="Helvetica,sans-Serif" font-size="32.00" fill="#29235c">1</text>
<text text-anchor="middle" x="1101.73" y="-1535.6" font-family="Helvetica,sans-Serif" font-size="32.00" fill="#29235c">*</text>
</g>
<!-- Employees -->
<g id="Employees" class="node">
<title>Employees</title>
<ellipse fill="none" stroke="black" stroke-width="0" cx="1592.72" cy="-1466" rx="263.09" ry="299.63"/>
<polygon fill="#1d71b8" stroke="transparent" points="1408.72,-1616 1408.72,-1676 1776.72,-1676 1776.72,-1616 1408.72,-1616"/>
<polygon fill="none" stroke="#29235c" points="1408.72,-1616 1408.72,-1676 1776.72,-1676 1776.72,-1616 1408.72,-1616"/>
<text text-anchor="start" x="1451.35" y="-1637.2" font-family="Helvetica,sans-Serif" font-weight="bold" font-size="32.00" fill="#ffffff"> &#160;&#160;&#160;&#160;&#160;&#160;Employees &#160;&#160;&#160;&#160;&#160;&#160;</text>
<polygon fill="#e7e2dd" stroke="transparent" points="1408.72,-1556 1408.72,-1616 1776.72,-1616 1776.72,-1556 1408.72,-1556"/>
<polygon fill="none" stroke="#29235c" points="1408.72,-1556 1408.72,-1616 1776.72,-1616 1776.72,-1556 1408.72,-1556"/>
<text text-anchor="start" x="1419.72" y="-1577.2" font-family="Helvetica,sans-Serif" font-weight="bold" font-size="32.00" fill="#29235c">EmployeeID</text>
<text text-anchor="start" x="1593.97" y="-1577.2" font-family="Helvetica,sans-Serif" font-size="32.00" fill="#29235c"> &#160;&#160;&#160;</text>
<text text-anchor="start" x="1731.94" y="-1577.2" font-family="Helvetica,sans-Serif" font-style="italic" font-size="32.00" fill="#29235c">int</text>
<polygon fill="#e7e2dd" stroke="transparent" points="1408.72,-1496 1408.72,-1556 1776.72,-1556 1776.72,-1496 1408.72,-1496"/>
<polygon fill="none" stroke="#29235c" points="1408.72,-1496 1408.72,-1556 1776.72,-1556 1776.72,-1496 1408.72,-1496"/>
<text text-anchor="start" x="1419.72" y="-1516.2" font-family="Helvetica,sans-Serif" font-size="32.00" fill="#29235c">LastName &#160;&#160;&#160;</text>
<text text-anchor="start" x="1602.17" y="-1517.2" font-family="Helvetica,sans-Serif" font-style="italic" font-size="32.00" fill="#29235c">varchar(15)</text>
<polygon fill="#e7e2dd" stroke="transparent" points="1408.72,-1436 1408.72,-1496 1776.72,-1496 1776.72,-1436 1408.72,-1436"/>
<polygon fill="none" stroke="#29235c" points="1408.72,-1436 1408.72,-1496 1776.72,-1496 1776.72,-1436 1408.72,-1436"/>
<text text-anchor="start" x="1419.67" y="-1456.2" font-family="Helvetica,sans-Serif" font-size="32.00" fill="#29235c">FirstName &#160;&#160;&#160;</text>
<text text-anchor="start" x="1602.45" y="-1457.2" font-family="Helvetica,sans-Serif" font-style="italic" font-size="32.00" fill="#29235c">varchar(15)</text>
<polygon fill="#e7e2dd" stroke="transparent" points="1408.72,-1376 1408.72,-1436 1776.72,-1436 1776.72,-1376 1408.72,-1376"/>
<polygon fill="none" stroke="#29235c" points="1408.72,-1376 1408.72,-1436 1776.72,-1436 1776.72,-1376 1408.72,-1376"/>
<text text-anchor="start" x="1419.72" y="-1396.2" font-family="Helvetica,sans-Serif" font-size="32.00" fill="#29235c">BirthDate &#160;&#160;&#160;</text>
<text text-anchor="start" x="1643.03" y="-1397.2" font-family="Helvetica,sans-Serif" font-style="italic" font-size="32.00" fill="#29235c">datetime</text>
<polygon fill="#e7e2dd" stroke="transparent" points="1408.72,-1316 1408.72,-1376 1776.72,-1376 1776.72,-1316 1408.72,-1316"/>
<polygon fill="none" stroke="#29235c" points="1408.72,-1316 1408.72,-1376 1776.72,-1376 1776.72,-1316 1408.72,-1316"/>
<text text-anchor="start" x="1419.72" y="-1336.2" font-family="Helvetica,sans-Serif" font-size="32.00" fill="#29235c">Photo &#160;&#160;&#160;</text>
<text text-anchor="start" x="1602.17" y="-1337.2" font-family="Helvetica,sans-Serif" font-style="italic" font-size="32.00" fill="#29235c">varchar(25)</text>
<polygon fill="#e7e2dd" stroke="transparent" points="1408.72,-1256 1408.72,-1316 1776.72,-1316 1776.72,-1256 1408.72,-1256"/>
<polygon fill="none" stroke="#29235c" points="1408.72,-1256 1408.72,-1316 1776.72,-1316 1776.72,-1256 1408.72,-1256"/>
<text text-anchor="start" x="1419.72" y="-1276.2" font-family="Helvetica,sans-Serif" font-size="32.00" fill="#29235c">Notes &#160;&#160;&#160;</text>
<text text-anchor="start" x="1566.59" y="-1277.2" font-family="Helvetica,sans-Serif" font-style="italic" font-size="32.00" fill="#29235c">varchar(1024)</text>
<polygon fill="none" stroke="#29235c" stroke-width="2" points="1407.72,-1255 1407.72,-1677 1777.72,-1677 1777.72,-1255 1407.72,-1255"/>
</g>
<!-- Orders&#45;&gt;Employees -->
<!-- Orders&#45;&gt;Employees -->
<g id="edge12" class="edge">
<title>Orders:e&#45;&gt;Employees:w</title>
<path fill="none" stroke="#29235c" stroke-width="3" d="M1107.95,-1466C1247.96,-1466 1263.51,-1580.21 1397.44,-1585.79"/>
<polygon fill="#29235c" stroke="#29235c" stroke-width="3" points="1397.65,-1589.29 1407.72,-1586 1397.8,-1582.3 1397.65,-1589.29"/>
<text text-anchor="middle" x="1398.83" y="-1595.6" font-family="Helvetica,sans-Serif" font-size="32.00" fill="#29235c">1</text>
<text text-anchor="middle" x="1101.73" y="-1475.6" font-family="Helvetica,sans-Serif" font-size="32.00" fill="#29235c">*</text>
</g>
<!-- Shippers -->
<g id="Shippers" class="node">
<title>Shippers</title>
<ellipse fill="none" stroke="black" stroke-width="0" cx="312.98" cy="-1556" rx="296.97" ry="172.57"/>
<polygon fill="#1d71b8" stroke="transparent" points="104.98,-1616 104.98,-1676 520.98,-1676 520.98,-1616 104.98,-1616"/>
<polygon fill="none" stroke="#29235c" points="104.98,-1616 104.98,-1676 520.98,-1676 520.98,-1616 104.98,-1616"/>
<text text-anchor="start" x="187.61" y="-1637.2" font-family="Helvetica,sans-Serif" font-weight="bold" font-size="32.00" fill="#ffffff"> &#160;&#160;&#160;&#160;&#160;&#160;Shippers &#160;&#160;&#160;&#160;&#160;&#160;</text>
<polygon fill="#e7e2dd" stroke="transparent" points="104.98,-1556 104.98,-1616 520.98,-1616 520.98,-1556 104.98,-1556"/>
<polygon fill="none" stroke="#29235c" points="104.98,-1556 104.98,-1616 520.98,-1616 520.98,-1556 104.98,-1556"/>
<text text-anchor="start" x="115.98" y="-1577.2" font-family="Helvetica,sans-Serif" font-weight="bold" font-size="32.00" fill="#29235c">ShipperID</text>
<text text-anchor="start" x="258.23" y="-1577.2" font-family="Helvetica,sans-Serif" font-size="32.00" fill="#29235c"> &#160;&#160;&#160;</text>
<text text-anchor="start" x="476.2" y="-1577.2" font-family="Helvetica,sans-Serif" font-style="italic" font-size="32.00" fill="#29235c">int</text>
<polygon fill="#e7e2dd" stroke="transparent" points="104.98,-1496 104.98,-1556 520.98,-1556 520.98,-1496 104.98,-1496"/>
<polygon fill="none" stroke="#29235c" points="104.98,-1496 104.98,-1556 520.98,-1556 520.98,-1496 104.98,-1496"/>
<text text-anchor="start" x="115.91" y="-1516.2" font-family="Helvetica,sans-Serif" font-size="32.00" fill="#29235c">ShipperName &#160;&#160;&#160;</text>
<text text-anchor="start" x="346.71" y="-1517.2" font-family="Helvetica,sans-Serif" font-style="italic" font-size="32.00" fill="#29235c">varchar(25)</text>
<polygon fill="#e7e2dd" stroke="transparent" points="104.98,-1436 104.98,-1496 520.98,-1496 520.98,-1436 104.98,-1436"/>
<polygon fill="none" stroke="#29235c" points="104.98,-1436 104.98,-1496 520.98,-1496 520.98,-1436 104.98,-1436"/>
<text text-anchor="start" x="115.98" y="-1456.2" font-family="Helvetica,sans-Serif" font-size="32.00" fill="#29235c">Phone &#160;&#160;&#160;</text>
<text text-anchor="start" x="346.43" y="-1457.2" font-family="Helvetica,sans-Serif" font-style="italic" font-size="32.00" fill="#29235c">varchar(15)</text>
<polygon fill="none" stroke="#29235c" stroke-width="2" points="103.98,-1435 103.98,-1677 521.98,-1677 521.98,-1435 103.98,-1435"/>
</g>
<!-- Orders&#45;&gt;Shippers -->
<!-- Orders&#45;&gt;Shippers -->
<g id="edge14" class="edge">
<title>Orders:e&#45;&gt;Shippers:w</title>
<path fill="none" stroke="#29235c" stroke-width="3" d="M1107.95,-1346C1155.68,-1346 1140.86,-1272.21 1106.95,-1238.61 981.05,-1113.88 845.28,-1126.29 708.2,-1238.61 536.42,-1379.37 781.74,-1587.78 609.97,-1728.53 436.37,-1870.78 264.24,-1886.68 104.98,-1728.53 62.58,-1686.42 42.91,-1596.92 94.01,-1586.91"/>
<polygon fill="#29235c" stroke="#29235c" stroke-width="3" points="94.35,-1590.4 103.98,-1586 93.71,-1583.43 94.35,-1590.4"/>
<text text-anchor="middle" x="95.09" y="-1595.6" font-family="Helvetica,sans-Serif" font-size="32.00" fill="#29235c">1</text>
<text text-anchor="middle" x="1101.73" y="-1355.6" font-family="Helvetica,sans-Serif" font-size="32.00" fill="#29235c">*</text>
</g>
<!-- Products -->
<g id="Products" class="node">
<title>Products</title>
<ellipse fill="none" stroke="black" stroke-width="0" cx="942.95" cy="-824" rx="296.97" ry="299.63"/>
<polygon fill="#1d71b8" stroke="transparent" points="734.95,-974 734.95,-1034 1150.95,-1034 1150.95,-974 734.95,-974"/>
<polygon fill="none" stroke="#29235c" points="734.95,-974 734.95,-1034 1150.95,-1034 1150.95,-974 734.95,-974"/>
<text text-anchor="start" x="817.58" y="-995.2" font-family="Helvetica,sans-Serif" font-weight="bold" font-size="32.00" fill="#ffffff"> &#160;&#160;&#160;&#160;&#160;&#160;Products &#160;&#160;&#160;&#160;&#160;&#160;</text>
<polygon fill="#e7e2dd" stroke="transparent" points="734.95,-914 734.95,-974 1150.95,-974 1150.95,-914 734.95,-914"/>
<polygon fill="none" stroke="#29235c" points="734.95,-914 734.95,-974 1150.95,-974 1150.95,-914 734.95,-914"/>
<text text-anchor="start" x="745.95" y="-935.2" font-family="Helvetica,sans-Serif" font-weight="bold" font-size="32.00" fill="#29235c">ProductID</text>
<text text-anchor="start" x="888.2" y="-935.2" font-family="Helvetica,sans-Serif" font-size="32.00" fill="#29235c"> &#160;&#160;&#160;</text>
<text text-anchor="start" x="1106.17" y="-935.2" font-family="Helvetica,sans-Serif" font-style="italic" font-size="32.00" fill="#29235c">int</text>
<polygon fill="#e7e2dd" stroke="transparent" points="734.95,-854 734.95,-914 1150.95,-914 1150.95,-854 734.95,-854"/>
<polygon fill="none" stroke="#29235c" points="734.95,-854 734.95,-914 1150.95,-914 1150.95,-854 734.95,-854"/>
<text text-anchor="start" x="745.88" y="-874.2" font-family="Helvetica,sans-Serif" font-size="32.00" fill="#29235c">ProductName &#160;&#160;&#160;</text>
<text text-anchor="start" x="976.68" y="-875.2" font-family="Helvetica,sans-Serif" font-style="italic" font-size="32.00" fill="#29235c">varchar(50)</text>
<polygon fill="#e7e2dd" stroke="transparent" points="734.95,-794 734.95,-854 1150.95,-854 1150.95,-794 734.95,-794"/>
<polygon fill="none" stroke="#29235c" points="734.95,-794 734.95,-854 1150.95,-854 1150.95,-794 734.95,-794"/>
<text text-anchor="start" x="745.95" y="-814.2" font-family="Helvetica,sans-Serif" font-size="32.00" fill="#29235c">SupplierID &#160;&#160;&#160;</text>
<text text-anchor="start" x="1106.17" y="-815.2" font-family="Helvetica,sans-Serif" font-style="italic" font-size="32.00" fill="#29235c">int</text>
<polygon fill="#e7e2dd" stroke="transparent" points="734.95,-734 734.95,-794 1150.95,-794 1150.95,-734 734.95,-734"/>
<polygon fill="none" stroke="#29235c" points="734.95,-734 734.95,-794 1150.95,-794 1150.95,-734 734.95,-734"/>
<text text-anchor="start" x="745.95" y="-754.2" font-family="Helvetica,sans-Serif" font-size="32.00" fill="#29235c">CategoryID &#160;&#160;&#160;</text>
<text text-anchor="start" x="1106.17" y="-755.2" font-family="Helvetica,sans-Serif" font-style="italic" font-size="32.00" fill="#29235c">int</text>
<polygon fill="#e7e2dd" stroke="transparent" points="734.95,-674 734.95,-734 1150.95,-734 1150.95,-674 734.95,-674"/>
<polygon fill="none" stroke="#29235c" points="734.95,-674 734.95,-734 1150.95,-734 1150.95,-674 734.95,-674"/>
<text text-anchor="start" x="745.95" y="-694.2" font-family="Helvetica,sans-Serif" font-size="32.00" fill="#29235c">Unit &#160;&#160;&#160;</text>
<text text-anchor="start" x="976.4" y="-695.2" font-family="Helvetica,sans-Serif" font-style="italic" font-size="32.00" fill="#29235c">varchar(25)</text>
<polygon fill="#e7e2dd" stroke="transparent" points="734.95,-614 734.95,-674 1150.95,-674 1150.95,-614 734.95,-614"/>
<polygon fill="none" stroke="#29235c" points="734.95,-614 734.95,-674 1150.95,-674 1150.95,-614 734.95,-614"/>
<text text-anchor="start" x="745.95" y="-634.2" font-family="Helvetica,sans-Serif" font-size="32.00" fill="#29235c">Price &#160;&#160;&#160;</text>
<text text-anchor="start" x="1026.18" y="-635.2" font-family="Helvetica,sans-Serif" font-style="italic" font-size="32.00" fill="#29235c">numeric</text>
<polygon fill="none" stroke="#29235c" stroke-width="2" points="733.95,-613 733.95,-1035 1151.95,-1035 1151.95,-613 733.95,-613"/>
</g>
<!-- Suppliers -->
<g id="Suppliers" class="node">
<title>Suppliers</title>
<ellipse fill="none" stroke="black" stroke-width="0" cx="1592.72" cy="-764" rx="301.87" ry="384.83"/>
<polygon fill="#1d71b8" stroke="transparent" points="1381.72,-974 1381.72,-1034 1804.72,-1034 1804.72,-974 1381.72,-974"/>
<polygon fill="none" stroke="#29235c" points="1381.72,-974 1381.72,-1034 1804.72,-1034 1804.72,-974 1381.72,-974"/>
<text text-anchor="start" x="1464.3" y="-995.2" font-family="Helvetica,sans-Serif" font-weight="bold" font-size="32.00" fill="#ffffff"> &#160;&#160;&#160;&#160;&#160;&#160;Suppliers &#160;&#160;&#160;&#160;&#160;&#160;</text>
<polygon fill="#e7e2dd" stroke="transparent" points="1381.72,-914 1381.72,-974 1804.72,-974 1804.72,-914 1381.72,-914"/>
<polygon fill="none" stroke="#29235c" points="1381.72,-914 1381.72,-974 1804.72,-974 1804.72,-914 1381.72,-914"/>
<text text-anchor="start" x="1392.72" y="-935.2" font-family="Helvetica,sans-Serif" font-weight="bold" font-size="32.00" fill="#29235c">SupplierID</text>
<text text-anchor="start" x="1542.07" y="-935.2" font-family="Helvetica,sans-Serif" font-size="32.00" fill="#29235c"> &#160;&#160;&#160;</text>
<text text-anchor="start" x="1759.94" y="-935.2" font-family="Helvetica,sans-Serif" font-style="italic" font-size="32.00" fill="#29235c">int</text>
<polygon fill="#e7e2dd" stroke="transparent" points="1381.72,-854 1381.72,-914 1804.72,-914 1804.72,-854 1381.72,-854"/>
<polygon fill="none" stroke="#29235c" points="1381.72,-854 1381.72,-914 1804.72,-914 1804.72,-854 1381.72,-854"/>
<text text-anchor="start" x="1392.6" y="-874.2" font-family="Helvetica,sans-Serif" font-size="32.00" fill="#29235c">SupplierName &#160;&#160;&#160;</text>
<text text-anchor="start" x="1630.45" y="-875.2" font-family="Helvetica,sans-Serif" font-style="italic" font-size="32.00" fill="#29235c">varchar(50)</text>
<polygon fill="#e7e2dd" stroke="transparent" points="1381.72,-794 1381.72,-854 1804.72,-854 1804.72,-794 1381.72,-794"/>
<polygon fill="none" stroke="#29235c" points="1381.72,-794 1381.72,-854 1804.72,-854 1804.72,-794 1381.72,-794"/>
<text text-anchor="start" x="1392.72" y="-814.2" font-family="Helvetica,sans-Serif" font-size="32.00" fill="#29235c">ContactName &#160;&#160;&#160;</text>
<text text-anchor="start" x="1630.17" y="-815.2" font-family="Helvetica,sans-Serif" font-style="italic" font-size="32.00" fill="#29235c">varchar(50)</text>
<polygon fill="#e7e2dd" stroke="transparent" points="1381.72,-734 1381.72,-794 1804.72,-794 1804.72,-734 1381.72,-734"/>
<polygon fill="none" stroke="#29235c" points="1381.72,-734 1381.72,-794 1804.72,-794 1804.72,-734 1381.72,-734"/>
<text text-anchor="start" x="1392.72" y="-754.2" font-family="Helvetica,sans-Serif" font-size="32.00" fill="#29235c">Address &#160;&#160;&#160;</text>
<text text-anchor="start" x="1630.17" y="-755.2" font-family="Helvetica,sans-Serif" font-style="italic" font-size="32.00" fill="#29235c">varchar(50)</text>
<polygon fill="#e7e2dd" stroke="transparent" points="1381.72,-674 1381.72,-734 1804.72,-734 1804.72,-674 1381.72,-674"/>
<polygon fill="none" stroke="#29235c" points="1381.72,-674 1381.72,-734 1804.72,-734 1804.72,-674 1381.72,-674"/>
<text text-anchor="start" x="1392.72" y="-694.2" font-family="Helvetica,sans-Serif" font-size="32.00" fill="#29235c">City &#160;&#160;&#160;</text>
<text text-anchor="start" x="1630.17" y="-695.2" font-family="Helvetica,sans-Serif" font-style="italic" font-size="32.00" fill="#29235c">varchar(20)</text>
<polygon fill="#e7e2dd" stroke="transparent" points="1381.72,-614 1381.72,-674 1804.72,-674 1804.72,-614 1381.72,-614"/>
<polygon fill="none" stroke="#29235c" points="1381.72,-614 1381.72,-674 1804.72,-674 1804.72,-614 1381.72,-614"/>
<text text-anchor="start" x="1392.72" y="-634.2" font-family="Helvetica,sans-Serif" font-size="32.00" fill="#29235c">PostalCode &#160;&#160;&#160;</text>
<text text-anchor="start" x="1630.17" y="-635.2" font-family="Helvetica,sans-Serif" font-style="italic" font-size="32.00" fill="#29235c">varchar(10)</text>
<polygon fill="#e7e2dd" stroke="transparent" points="1381.72,-554 1381.72,-614 1804.72,-614 1804.72,-554 1381.72,-554"/>
<polygon fill="none" stroke="#29235c" points="1381.72,-554 1381.72,-614 1804.72,-614 1804.72,-554 1381.72,-554"/>
<text text-anchor="start" x="1392.72" y="-574.2" font-family="Helvetica,sans-Serif" font-size="32.00" fill="#29235c">Country &#160;&#160;&#160;</text>
<text text-anchor="start" x="1630.17" y="-575.2" font-family="Helvetica,sans-Serif" font-style="italic" font-size="32.00" fill="#29235c">varchar(15)</text>
<polygon fill="#e7e2dd" stroke="transparent" points="1381.72,-494 1381.72,-554 1804.72,-554 1804.72,-494 1381.72,-494"/>
<polygon fill="none" stroke="#29235c" points="1381.72,-494 1381.72,-554 1804.72,-554 1804.72,-494 1381.72,-494"/>
<text text-anchor="start" x="1392.72" y="-514.2" font-family="Helvetica,sans-Serif" font-size="32.00" fill="#29235c">Phone &#160;&#160;&#160;</text>
<text text-anchor="start" x="1630.17" y="-515.2" font-family="Helvetica,sans-Serif" font-style="italic" font-size="32.00" fill="#29235c">varchar(15)</text>
<polygon fill="none" stroke="#29235c" stroke-width="2" points="1380.22,-493 1380.22,-1035 1805.22,-1035 1805.22,-493 1380.22,-493"/>
</g>
<!-- Products&#45;&gt;Suppliers -->
<!-- Products&#45;&gt;Suppliers -->
<g id="edge4" class="edge">
<title>Products:e&#45;&gt;Suppliers:w</title>
<path fill="none" stroke="#29235c" stroke-width="3" d="M1151.95,-824C1263.29,-824 1265.86,-936.84 1370.61,-943.68"/>
<polygon fill="#29235c" stroke="#29235c" stroke-width="3" points="1370.62,-947.18 1380.72,-944 1370.84,-940.18 1370.62,-947.18"/>
<text text-anchor="middle" x="1371.83" y="-953.6" font-family="Helvetica,sans-Serif" font-size="32.00" fill="#29235c">1</text>
<text text-anchor="middle" x="1145.73" y="-833.6" font-family="Helvetica,sans-Serif" font-size="32.00" fill="#29235c">*</text>
</g>
<!-- Categories -->
<g id="Categories" class="node">
<title>Categories</title>
<ellipse fill="none" stroke="black" stroke-width="0" cx="1592.72" cy="-189" rx="310.34" ry="172.57"/>
<polygon fill="#1d71b8" stroke="transparent" points="1375.72,-249 1375.72,-309 1810.72,-309 1810.72,-249 1375.72,-249"/>
<polygon fill="none" stroke="#29235c" points="1375.72,-249 1375.72,-309 1810.72,-309 1810.72,-249 1375.72,-249"/>
<text text-anchor="start" x="1453.63" y="-270.2" font-family="Helvetica,sans-Serif" font-weight="bold" font-size="32.00" fill="#ffffff"> &#160;&#160;&#160;&#160;&#160;&#160;Categories &#160;&#160;&#160;&#160;&#160;&#160;</text>
<polygon fill="#e7e2dd" stroke="transparent" points="1375.72,-189 1375.72,-249 1810.72,-249 1810.72,-189 1375.72,-189"/>
<polygon fill="none" stroke="#29235c" points="1375.72,-189 1375.72,-249 1810.72,-249 1810.72,-189 1375.72,-189"/>
<text text-anchor="start" x="1386.72" y="-210.2" font-family="Helvetica,sans-Serif" font-weight="bold" font-size="32.00" fill="#29235c">CategoryID</text>
<text text-anchor="start" x="1548.52" y="-210.2" font-family="Helvetica,sans-Serif" font-size="32.00" fill="#29235c"> &#160;&#160;&#160;</text>
<text text-anchor="start" x="1765.94" y="-210.2" font-family="Helvetica,sans-Serif" font-style="italic" font-size="32.00" fill="#29235c">int</text>
<polygon fill="#e7e2dd" stroke="transparent" points="1375.72,-129 1375.72,-189 1810.72,-189 1810.72,-129 1375.72,-129"/>
<polygon fill="none" stroke="#29235c" points="1375.72,-129 1375.72,-189 1810.72,-189 1810.72,-129 1375.72,-129"/>
<text text-anchor="start" x="1386.37" y="-149.2" font-family="Helvetica,sans-Serif" font-size="32.00" fill="#29235c">CategoryName &#160;&#160;&#160;</text>
<text text-anchor="start" x="1636.45" y="-150.2" font-family="Helvetica,sans-Serif" font-style="italic" font-size="32.00" fill="#29235c">varchar(25)</text>
<polygon fill="#e7e2dd" stroke="transparent" points="1375.72,-69 1375.72,-129 1810.72,-129 1810.72,-69 1375.72,-69"/>
<polygon fill="none" stroke="#29235c" points="1375.72,-69 1375.72,-129 1810.72,-129 1810.72,-69 1375.72,-69"/>
<text text-anchor="start" x="1386.72" y="-89.2" font-family="Helvetica,sans-Serif" font-size="32.00" fill="#29235c">Description &#160;&#160;&#160;</text>
<text text-anchor="start" x="1618.38" y="-90.2" font-family="Helvetica,sans-Serif" font-style="italic" font-size="32.00" fill="#29235c">varchar(255)</text>
<polygon fill="none" stroke="#29235c" stroke-width="2" points="1374.22,-68 1374.22,-310 1811.22,-310 1811.22,-68 1374.22,-68"/>
</g>
<!-- Products&#45;&gt;Categories -->
<!-- Products&#45;&gt;Categories -->
<g id="edge2" class="edge">
<title>Products:e&#45;&gt;Categories:w</title>
<path fill="none" stroke="#29235c" stroke-width="3" d="M1151.95,-764C1410.18,-764 1120.88,-233.28 1364.66,-219.28"/>
<polygon fill="#29235c" stroke="#29235c" stroke-width="3" points="1364.83,-222.78 1374.72,-219 1364.63,-215.78 1364.83,-222.78"/>
<text text-anchor="middle" x="1365.83" y="-190.2" font-family="Helvetica,sans-Serif" font-size="32.00" fill="#29235c">1</text>
<text text-anchor="middle" x="1145.73" y="-773.6" font-family="Helvetica,sans-Serif" font-size="32.00" fill="#29235c">*</text>
</g>
<!-- OrderDetails -->
<g id="OrderDetails" class="node">
<title>OrderDetails</title>
<ellipse fill="none" stroke="black" stroke-width="0" cx="312.98" cy="-1151" rx="233.19" ry="214.92"/>
<polygon fill="#1d71b8" stroke="transparent" points="149.98,-1241 149.98,-1301 475.98,-1301 475.98,-1241 149.98,-1241"/>
<polygon fill="none" stroke="#29235c" points="149.98,-1241 149.98,-1301 475.98,-1301 475.98,-1241 149.98,-1241"/>
<text text-anchor="start" x="160.96" y="-1262.2" font-family="Helvetica,sans-Serif" font-weight="bold" font-size="32.00" fill="#ffffff"> &#160;&#160;&#160;&#160;&#160;&#160;OrderDetails &#160;&#160;&#160;&#160;&#160;&#160;</text>
<polygon fill="#e7e2dd" stroke="transparent" points="149.98,-1181 149.98,-1241 475.98,-1241 475.98,-1181 149.98,-1181"/>
<polygon fill="none" stroke="#29235c" points="149.98,-1181 149.98,-1241 475.98,-1241 475.98,-1181 149.98,-1181"/>
<text text-anchor="start" x="160.98" y="-1202.2" font-family="Helvetica,sans-Serif" font-weight="bold" font-size="32.00" fill="#29235c">OrderDetailID</text>
<text text-anchor="start" x="356.53" y="-1202.2" font-family="Helvetica,sans-Serif" font-size="32.00" fill="#29235c"> &#160;&#160;&#160;</text>
<text text-anchor="start" x="431.2" y="-1202.2" font-family="Helvetica,sans-Serif" font-style="italic" font-size="32.00" fill="#29235c">int</text>
<polygon fill="#e7e2dd" stroke="transparent" points="149.98,-1121 149.98,-1181 475.98,-1181 475.98,-1121 149.98,-1121"/>
<polygon fill="none" stroke="#29235c" points="149.98,-1121 149.98,-1181 475.98,-1181 475.98,-1121 149.98,-1121"/>
<text text-anchor="start" x="160.98" y="-1141.2" font-family="Helvetica,sans-Serif" font-size="32.00" fill="#29235c">OrderID &#160;&#160;&#160;</text>
<text text-anchor="start" x="431.2" y="-1142.2" font-family="Helvetica,sans-Serif" font-style="italic" font-size="32.00" fill="#29235c">int</text>
<polygon fill="#e7e2dd" stroke="transparent" points="149.98,-1061 149.98,-1121 475.98,-1121 475.98,-1061 149.98,-1061"/>
<polygon fill="none" stroke="#29235c" points="149.98,-1061 149.98,-1121 475.98,-1121 475.98,-1061 149.98,-1061"/>
<text text-anchor="start" x="160.98" y="-1081.2" font-family="Helvetica,sans-Serif" font-size="32.00" fill="#29235c">ProductID &#160;&#160;&#160;</text>
<text text-anchor="start" x="431.2" y="-1082.2" font-family="Helvetica,sans-Serif" font-style="italic" font-size="32.00" fill="#29235c">int</text>
<polygon fill="#e7e2dd" stroke="transparent" points="149.98,-1001 149.98,-1061 475.98,-1061 475.98,-1001 149.98,-1001"/>
<polygon fill="none" stroke="#29235c" points="149.98,-1001 149.98,-1061 475.98,-1061 475.98,-1001 149.98,-1001"/>
<text text-anchor="start" x="160.98" y="-1021.2" font-family="Helvetica,sans-Serif" font-size="32.00" fill="#29235c">Quantity &#160;&#160;&#160;</text>
<text text-anchor="start" x="431.2" y="-1022.2" font-family="Helvetica,sans-Serif" font-style="italic" font-size="32.00" fill="#29235c">int</text>
<polygon fill="none" stroke="#29235c" stroke-width="2" points="148.98,-1000 148.98,-1302 476.98,-1302 476.98,-1000 148.98,-1000"/>
</g>
<!-- OrderDetails&#45;&gt;Orders -->
<!-- OrderDetails&#45;&gt;Orders -->
<g id="edge8" class="edge">
<title>OrderDetails:e&#45;&gt;Orders:w</title>
<path fill="none" stroke="#29235c" stroke-width="3" d="M476.98,-1151C708.64,-1151 547.73,-1573.35 767.88,-1585.72"/>
<polygon fill="#29235c" stroke="#29235c" stroke-width="3" points="767.86,-1589.22 777.95,-1586 768.05,-1582.23 767.86,-1589.22"/>
<text text-anchor="middle" x="769.06" y="-1595.6" font-family="Helvetica,sans-Serif" font-size="32.00" fill="#29235c">1</text>
<text text-anchor="middle" x="470.76" y="-1160.6" font-family="Helvetica,sans-Serif" font-size="32.00" fill="#29235c">*</text>
</g>
<!-- OrderDetails&#45;&gt;Products -->
<!-- OrderDetails&#45;&gt;Products -->
<g id="edge6" class="edge">
<title>OrderDetails:e&#45;&gt;Products:w</title>
<path fill="none" stroke="#29235c" stroke-width="3" d="M476.98,-1091C605.09,-1091 602.61,-951.65 723.83,-944.3"/>
<polygon fill="#29235c" stroke="#29235c" stroke-width="3" points="724.06,-947.8 733.95,-944 723.85,-940.8 724.06,-947.8"/>
<text text-anchor="middle" x="725.06" y="-953.6" font-family="Helvetica,sans-Serif" font-size="32.00" fill="#29235c">1</text>
<text text-anchor="middle" x="470.76" y="-1100.6" font-family="Helvetica,sans-Serif" font-size="32.00" fill="#29235c">*</text>
</g>
</g>
</svg>
